<?xml version="1.0" encoding="UTF-8" standalone="no"?>
<!DOCTYPE svg PUBLIC "-//W3C//DTD SVG 1.1//EN"
 "http://www.w3.org/Graphics/SVG/1.1/DTD/svg11.dtd">
<!-- Generated by graphviz version 2.30.1 (20180828.1746)
 -->
<!-- Title: %3 Pages: 1 -->
<svg width="436pt" height="383pt"
 viewBox="0.00 0.00 436.00 383.00" xmlns="http://www.w3.org/2000/svg" xmlns:xlink="http://www.w3.org/1999/xlink">
<g id="graph0" class="graph" transform="scale(1 1) rotate(0) translate(4 379)">
<title>%3</title>
<polygon fill="white" stroke="white" points="-4,5 -4,-379 433,-379 433,5 -4,5"/>
<g id="clust1" class="cluster"><title>cluster_category</title>
<polygon fill="none" stroke="black" points="147,-174 147,-249 261,-249 261,-174 147,-174"/>
<text text-anchor="middle" x="230" y="-181.8" font-family="Times,serif" font-size="14.00">category</text>
</g>
<g id="clust2" class="cluster"><title>cluster_time_cat</title>
<polygon fill="none" stroke="black" points="266,-91 266,-166 420,-166 420,-91 266,-91"/>
<text text-anchor="middle" x="388" y="-98.8" font-family="Times,serif" font-size="14.00">time_cat</text>
</g>
<g id="clust3" class="cluster"><title>cluster_product</title>
<polygon fill="none" stroke="black" points="8,-91 8,-166 258,-166 258,-91 8,-91"/>
<text text-anchor="middle" x="229" y="-98.8" font-family="Times,serif" font-size="14.00">product</text>
</g>
<g id="clust4" class="cluster"><title>cluster_data</title>
<polygon fill="none" stroke="black" points="169,-8 169,-83 239,-83 239,-8 169,-8"/>
<text text-anchor="middle" x="219.5" y="-15.8" font-family="Times,serif" font-size="14.00">data</text>
</g>
<!-- global_a -->
<g id="node1" class="node"><title>global_a</title>
<ellipse fill="white" stroke="black" cx="204" cy="-326" rx="40.4202" ry="18"/>
<text text-anchor="middle" x="204" y="-322.3" font-family="Times,serif" font-size="14.00">global_a</text>
</g>
<!-- category_a -->
<g id="node2" class="node"><title>category_a</title>
<ellipse fill="white" stroke="black" cx="204" cy="-223" rx="48.6179" ry="18"/>
<text text-anchor="middle" x="204" y="-219.3" font-family="Times,serif" font-size="14.00">category_a</text>
</g>
<!-- global_a&#45;&gt;category_a -->
<g id="edge1" class="edge"><title>global_a&#45;&gt;category_a</title>
<path fill="none" stroke="black" d="M204,-307.867C204,-292.414 204,-269.416 204,-251.409"/>
<polygon fill="black" stroke="black" points="207.5,-251.217 204,-241.217 200.5,-251.217 207.5,-251.217"/>
</g>
<!-- product_a -->
<g id="node4" class="node"><title>product_a</title>
<ellipse fill="white" stroke="black" cx="204" cy="-140" rx="46.2191" ry="18"/>
<text text-anchor="middle" x="204" y="-136.3" font-family="Times,serif" font-size="14.00">product_a</text>
</g>
<!-- category_a&#45;&gt;product_a -->
<g id="edge2" class="edge"><title>category_a&#45;&gt;product_a</title>
<path fill="none" stroke="black" d="M204,-204.822C204,-194.19 204,-180.306 204,-168.204"/>
<polygon fill="black" stroke="black" points="207.5,-168.153 204,-158.153 200.5,-168.153 207.5,-168.153"/>
</g>
<!-- time_cat_effects -->
<g id="node3" class="node"><title>time_cat_effects</title>
<ellipse fill="white" stroke="black" cx="343" cy="-140" rx="68.3417" ry="18"/>
<text text-anchor="middle" x="343" y="-136.3" font-family="Times,serif" font-size="14.00">time_cat_effects</text>
</g>
<!-- obs -->
<g id="node6" class="node"><title>obs</title>
<ellipse fill="grey" stroke="black" cx="204" cy="-57" rx="27" ry="18"/>
<text text-anchor="middle" x="204" y="-53.3" font-family="Times,serif" font-size="14.00">obs</text>
</g>
<!-- time_cat_effects&#45;&gt;obs -->
<g id="edge5" class="edge"><title>time_cat_effects&#45;&gt;obs</title>
<path fill="none" stroke="black" d="M316.804,-123.318C300.977,-113.883 280.376,-101.671 262,-91 252.533,-85.5021 242.151,-79.5664 232.821,-74.2654"/>
<polygon fill="black" stroke="black" points="234.339,-71.1028 223.914,-69.2156 230.887,-77.1923 234.339,-71.1028"/>
</g>
<!-- product_a&#45;&gt;obs -->
<g id="edge3" class="edge"><title>product_a&#45;&gt;obs</title>
<path fill="none" stroke="black" d="M204,-121.822C204,-111.19 204,-97.306 204,-85.2035"/>
<polygon fill="black" stroke="black" points="207.5,-85.1532 204,-75.1533 200.5,-85.1533 207.5,-85.1532"/>
</g>
<!-- product_effect -->
<g id="node5" class="node"><title>product_effect</title>
<ellipse fill="white" stroke="black" cx="78" cy="-140" rx="61.6163" ry="18"/>
<text text-anchor="middle" x="78" y="-136.3" font-family="Times,serif" font-size="14.00">product_effect</text>
</g>
<!-- product_effect&#45;&gt;obs -->
<g id="edge4" class="edge"><title>product_effect&#45;&gt;obs</title>
<path fill="none" stroke="black" d="M100.814,-123.118C114.635,-113.612 132.689,-101.396 149,-91 157.572,-85.5362 167.025,-79.7729 175.64,-74.6183"/>
<polygon fill="black" stroke="black" points="177.434,-77.6234 184.242,-69.5053 173.858,-71.606 177.434,-77.6234"/>
</g>
<!-- distribution_description_node -->
<g id="node7" class="node"><title>distribution_description_node</title>
<text text-anchor="start" x="270.5" y="-359.8" font-family="Times,serif" font-size="14.00">global_a ~ Normal</text>
<text text-anchor="start" x="270.5" y="-344.8" font-family="Times,serif" font-size="14.00">category_a ~ Normal</text>
<text text-anchor="start" x="270.5" y="-329.8" font-family="Times,serif" font-size="14.00">product_a ~ Normal</text>
<text text-anchor="start" x="270.5" y="-314.8" font-family="Times,serif" font-size="14.00">product_effect ~ Normal</text>
<text text-anchor="start" x="270.5" y="-299.8" font-family="Times,serif" font-size="14.00">time_cat_effects ~ Normal</text>
<text text-anchor="start" x="270.5" y="-284.8" font-family="Times,serif" font-size="14.00">obs ~ Poisson</text>
</g>
</g>
</svg>
